<svg width="26" height="16" viewBox="0 0 26 16" fill="none" xmlns="http://www.w3.org/2000/svg">
<rect x="0.25" y="0.25" width="25.5" height="15.5" rx="0.75" fill="white"/>
<rect x="0.25" y="0.25" width="25.5" height="15.5" rx="0.75" stroke="black" stroke-width="0.5"/>
<path d="M6.80048 5.0314C6.55673 5.30158 6.16665 5.51477 5.77661 5.48428C5.72786 5.11896 5.9188 4.73073 6.14227 4.49094C6.38602 4.21314 6.81267 4.01522 7.15802 4C7.19865 4.38058 7.04017 4.75356 6.80048 5.0314ZM7.15396 5.55663C6.58919 5.52618 6.10571 5.85726 5.83755 5.85726C5.56536 5.85726 5.15497 5.57185 4.70805 5.57946C4.12707 5.58707 3.58668 5.89531 3.29008 6.38629C2.68062 7.36822 3.13164 8.82209 3.72074 9.62132C4.00922 10.0171 4.35457 10.451 4.80961 10.4358C5.24032 10.4205 5.41094 10.1732 5.93102 10.1732C6.45513 10.1732 6.60548 10.4358 7.06052 10.4282C7.53181 10.4205 7.82841 10.0324 8.11689 9.63654C8.44595 9.18746 8.58006 8.74975 8.58818 8.72692C8.58006 8.71931 7.6781 8.39584 7.66998 7.42149C7.66185 6.60705 8.381 6.21885 8.4135 6.19602C8.00716 5.63273 7.37337 5.57185 7.15396 5.55663ZM10.4166 4.45289V10.3863H11.3998V8.35779H12.7609C14.0041 8.35779 14.8777 7.55857 14.8777 6.40155C14.8777 5.24458 14.0204 4.45293 12.7934 4.45293H10.4165L10.4166 4.45289ZM11.3998 5.22932H12.5333C13.3866 5.22932 13.8741 5.65557 13.8741 6.40532C13.8741 7.15507 13.3866 7.58517 12.5293 7.58517H11.3998V5.22932ZM16.6735 10.432C17.2911 10.432 17.8639 10.1389 18.124 9.67459H18.1443V10.3863H19.0544V7.43291C19.0544 6.5766 18.3231 6.02474 17.1976 6.02474C16.1534 6.02474 15.3815 6.58421 15.353 7.35299H16.2388C16.3119 6.98763 16.6734 6.74785 17.1692 6.74785C17.7705 6.74785 18.1077 7.01046 18.1077 7.49383V7.82111L16.8807 7.8896C15.739 7.9543 15.1215 8.392 15.1215 9.15321C15.1215 9.92199 15.7593 10.432 16.6735 10.432ZM16.9375 9.72787C16.4135 9.72787 16.0803 9.49193 16.0803 9.13034C16.0803 8.7574 16.4013 8.54045 17.0148 8.5062L18.1077 8.44151V8.77639C18.1077 9.33206 17.6039 9.72787 16.9376 9.72787H16.9375ZM20.2692 12C21.2281 12 21.6791 11.6575 22.0732 10.6185L23.7999 6.08182H22.8004L21.6425 9.58703H21.6222L20.4642 6.08182H19.4363L21.1021 10.4015L21.0127 10.6641C20.8624 11.1094 20.6186 11.2807 20.1839 11.2807C20.1067 11.2807 19.9564 11.2731 19.8954 11.2655V11.9772C19.9523 11.9924 20.196 12 20.2692 12Z" fill="black"/>
</svg>
