<svg width="32" height="32" viewBox="0 0 32 32" fill="none" xmlns="http://www.w3.org/2000/svg">
<rect width="32" height="32" rx="16" fill="#F3F3F3"/>
<path fill-rule="evenodd" clip-rule="evenodd" d="M25.546 9.111C25.8272 9.39229 25.9852 9.77375 25.9852 10.1715C25.9852 10.5692 25.8272 10.9507 25.546 11.232L14.303 22.475C14.1544 22.6236 13.978 22.7415 13.7839 22.8219C13.5897 22.9024 13.3816 22.9438 13.1715 22.9438C12.9613 22.9438 12.7533 22.9024 12.5591 22.8219C12.365 22.7415 12.1886 22.6236 12.04 22.475L6.454 16.89C6.31073 16.7516 6.19646 16.5861 6.11784 16.4031C6.03923 16.2201 5.99785 16.0233 5.99612 15.8241C5.99439 15.6249 6.03234 15.4274 6.10776 15.2431C6.18318 15.0587 6.29456 14.8912 6.4354 14.7504C6.57624 14.6096 6.74372 14.4982 6.92806 14.4228C7.11241 14.3473 7.30993 14.3094 7.5091 14.3111C7.70827 14.3129 7.9051 14.3542 8.0881 14.4328C8.27111 14.5115 8.43663 14.6257 8.575 14.769L13.171 19.365L23.424 9.111C23.5633 8.97161 23.7287 8.86103 23.9107 8.78559C24.0928 8.71015 24.2879 8.67132 24.485 8.67132C24.6821 8.67132 24.8772 8.71015 25.0592 8.78559C25.2413 8.86103 25.4067 8.97161 25.546 9.111Z" fill="#807E80"/>
</svg>
