<svg width="26" height="16" viewBox="0 0 26 16" fill="none" xmlns="http://www.w3.org/2000/svg">
<rect x="0.25" y="0.25" width="25.5" height="15.5" rx="0.75" fill="white"/>
<rect x="0.25" y="0.25" width="25.5" height="15.5" rx="0.75" stroke="black" stroke-width="0.5"/>
<g clip-path="url(#clip0_0_291)">
<path d="M17.1764 6.15928C17.7263 6.15928 18.1511 6.30983 18.4761 6.61093C18.8009 6.91199 18.9509 7.31344 18.9509 7.81524V10.2239H18.2511V9.67195H18.2261C17.9262 10.1236 17.5013 10.3494 17.0015 10.3494C16.5766 10.3494 16.2017 10.2239 15.9018 9.97305C15.6269 9.72214 15.452 9.37089 15.452 8.99454C15.452 8.59309 15.602 8.26689 15.9018 8.01599C16.2017 7.76509 16.6266 7.66473 17.1264 7.66473C17.5763 7.66473 17.9262 7.74003 18.2011 7.91563V7.74003C18.2011 7.50583 18.114 7.27167 17.9398 7.11909L17.9012 7.08767C17.7013 6.91203 17.4513 6.81167 17.1764 6.81167C16.7516 6.81167 16.4267 6.98732 16.2017 7.33858L15.552 6.93705C15.9518 6.41014 16.4766 6.15928 17.1764 6.15928ZM13.6525 4.45316C14.101 4.45316 14.5271 4.60983 14.8679 4.90199L14.9271 4.95493C15.277 5.25603 15.452 5.70767 15.452 6.18438C15.452 6.66109 15.277 7.08763 14.9271 7.41379C14.5772 7.73999 14.1524 7.9156 13.6525 7.9156L12.4529 7.8905V10.2239H11.7031V4.45312L13.6525 4.45316ZM17.2764 8.26689C16.9765 8.26689 16.7266 8.34214 16.5266 8.49269C16.3267 8.61814 16.2267 8.79375 16.2267 9.01956C16.2267 9.2203 16.3267 9.39591 16.4766 9.4963C16.6516 9.62175 16.8515 9.69701 17.0515 9.69701C17.3314 9.69701 17.6113 9.58771 17.8302 9.38956L17.8762 9.34575C18.1261 9.11995 18.2511 8.84395 18.2511 8.54285C18.0262 8.36724 17.7012 8.26685 17.2764 8.26685L17.2764 8.26689ZM13.7025 5.15567H12.4529V7.16293H13.7025C13.9774 7.16293 14.2523 7.06258 14.4273 6.86187C14.8271 6.48552 14.8271 5.85826 14.4523 5.48187L14.4273 5.45677C14.2273 5.25607 13.9774 5.13062 13.7025 5.15571L13.7025 5.15567ZM22.9996 6.28473L20.5254 11.9802H19.7756L20.7003 9.99811L19.0758 6.30983H19.8756L21.0502 9.14501H21.0752L22.2248 6.30983H22.9996V6.28473Z" fill="#5F6368"/>
<path d="M9.47961 7.38835C9.47961 7.16255 9.45461 6.93674 9.42961 6.71094H6.30566V7.99055H8.08008C8.00512 8.39196 7.7802 8.76831 7.43031 8.99415V9.82211H8.50496C9.12977 9.24506 9.47965 8.39196 9.47965 7.38839L9.47961 7.38835Z" fill="#4285F4"/>
<path d="M6.30551 10.6251C7.2052 10.6251 7.95496 10.324 8.5048 9.82219L7.43016 8.99423C7.13023 9.19494 6.75535 9.32039 6.30551 9.32039C5.45574 9.32039 4.70598 8.74333 4.45605 7.94043H3.35645V8.79349C3.93125 9.92255 5.0559 10.6251 6.30551 10.6251Z" fill="#34A853"/>
<path d="M4.45578 7.94053C4.30586 7.53908 4.30586 7.08747 4.45578 6.66092V5.80786H3.35617C2.88129 6.73621 2.88129 7.84017 3.35617 8.79359L4.45578 7.94053Z" fill="#FBBC04"/>
<path d="M6.30496 5.30605C6.7798 5.30605 7.22965 5.4817 7.57957 5.80786L8.52926 4.85444C7.92941 4.30244 7.12969 3.97629 6.32992 4.00135C5.08031 4.00135 3.9307 4.7039 3.38086 5.83295L4.48051 6.68601C4.70543 5.88311 5.4552 5.30605 6.30496 5.30605Z" fill="#EA4335"/>
</g>
<defs>
<clipPath id="clip0_0_291">
<rect width="20" height="8" fill="white" transform="translate(3 4)"/>
</clipPath>
</defs>
</svg>
