<svg width="26" height="16" viewBox="0 0 26 16" fill="none" xmlns="http://www.w3.org/2000/svg">
<rect x="0.25" y="0.25" width="25.5" height="15.5" rx="0.75" fill="white"/>
<rect x="0.25" y="0.25" width="25.5" height="15.5" rx="0.75" stroke="black" stroke-width="0.5"/>
<g clip-path="url(#clip0_0_298)">
<path d="M9.18186 12.9504V12.2885C9.18186 12.0347 9.03777 11.8693 8.79078 11.8693C8.66731 11.8693 8.53353 11.9134 8.44091 12.0568C8.36891 11.9355 8.26602 11.8693 8.11166 11.8693C8.00872 11.8693 7.90588 11.9024 7.82352 12.0237V11.8914H7.60742V12.9504H7.82352V12.3657C7.82352 12.1782 7.91614 12.0899 8.06023 12.0899C8.20423 12.0899 8.27633 12.1892 8.27633 12.3657V12.9504H8.49242V12.3657C8.49242 12.1782 8.59527 12.0899 8.72905 12.0899C8.87314 12.0899 8.94514 12.1892 8.94514 12.3657V12.9504H9.18186ZM12.3821 11.8914H12.0322V11.5715H11.8161V11.8914H11.6206V12.1009H11.8161V12.5863C11.8161 12.8291 11.9087 12.9724 12.1557 12.9724C12.2483 12.9724 12.3512 12.9394 12.4233 12.8952L12.3615 12.6966C12.2998 12.7408 12.2278 12.7518 12.1763 12.7518C12.0734 12.7518 12.0322 12.6856 12.0322 12.5753V12.1009H12.3821V11.8914ZM14.2138 11.8693C14.0903 11.8693 14.008 11.9355 13.9565 12.0237V11.8914H13.7404V12.9504H13.9565V12.3547C13.9565 12.1782 14.0285 12.0789 14.1623 12.0789C14.2034 12.0789 14.2549 12.09 14.2961 12.101L14.3578 11.8804C14.3166 11.8693 14.2549 11.8693 14.2138 11.8693V11.8693ZM11.4457 11.9796C11.3428 11.9024 11.1987 11.8693 11.0443 11.8693C10.7974 11.8693 10.6328 12.0017 10.6328 12.2113C10.6328 12.3878 10.7563 12.487 10.9723 12.5202L11.0752 12.5312C11.1884 12.5532 11.2502 12.5863 11.2502 12.6415C11.2502 12.7187 11.1679 12.7739 11.0238 12.7739C10.8797 12.7739 10.7665 12.7187 10.6945 12.6636L10.5916 12.8401C10.7048 12.9283 10.8591 12.9724 11.0135 12.9724C11.3016 12.9724 11.4663 12.8291 11.4663 12.6305C11.4663 12.4429 11.3325 12.3436 11.1267 12.3106L11.0238 12.2995C10.9311 12.2884 10.8591 12.2664 10.8591 12.2003C10.8591 12.123 10.9311 12.0789 11.0443 12.0789C11.1679 12.0789 11.2913 12.134 11.3531 12.1671L11.4457 11.9796ZM17.1876 11.8693C17.0641 11.8693 16.9818 11.9355 16.9303 12.0237V11.8914H16.7143V12.9504H16.9303V12.3547C16.9303 12.1782 17.0024 12.0789 17.1361 12.0789C17.1773 12.0789 17.2288 12.09 17.27 12.101L17.3317 11.8804C17.2905 11.8693 17.2288 11.8693 17.1876 11.8693ZM14.4298 12.4209C14.4298 12.7408 14.6356 12.9724 14.9547 12.9724C15.0987 12.9724 15.2016 12.9394 15.3045 12.8511L15.2016 12.6636C15.1193 12.7298 15.037 12.7628 14.9443 12.7628C14.7694 12.7628 14.6459 12.6305 14.6459 12.4209C14.6459 12.2223 14.7694 12.0899 14.9443 12.0789C15.037 12.0789 15.1193 12.112 15.2016 12.1782L15.3045 11.9907C15.2016 11.9024 15.0987 11.8693 14.9547 11.8693C14.6356 11.8693 14.4298 12.101 14.4298 12.4209ZM16.4262 12.4209V11.8914H16.2101V12.0237C16.138 11.9245 16.0351 11.8693 15.9013 11.8693C15.6235 11.8693 15.4074 12.101 15.4074 12.4209C15.4074 12.7408 15.6235 12.9724 15.9013 12.9724C16.0454 12.9724 16.1483 12.9173 16.2101 12.818V12.9504H16.4262V12.4209ZM15.6338 12.4209C15.6338 12.2333 15.747 12.0789 15.9322 12.0789C16.1071 12.0789 16.2306 12.2223 16.2306 12.4209C16.2306 12.6084 16.1071 12.7628 15.9322 12.7628C15.747 12.7518 15.6338 12.6084 15.6338 12.4209ZM13.051 11.8693C12.7628 11.8693 12.557 12.0899 12.557 12.4209C12.557 12.7518 12.7628 12.9724 13.0612 12.9724C13.2053 12.9724 13.3494 12.9283 13.4626 12.8291L13.3596 12.6636C13.2773 12.7298 13.1744 12.7739 13.0715 12.7739C12.9378 12.7739 12.804 12.7077 12.7731 12.5201H13.5037V12.4319C13.514 12.0899 13.3288 11.8693 13.051 11.8693ZM13.051 12.0678C13.1847 12.0678 13.2774 12.1561 13.2979 12.3216H12.7834C12.804 12.1782 12.8966 12.0678 13.051 12.0678ZM18.4122 12.4209V11.4722H18.1961V12.0237C18.124 11.9245 18.0211 11.8693 17.8873 11.8693C17.6095 11.8693 17.3934 12.101 17.3934 12.4209C17.3934 12.7408 17.6095 12.9724 17.8873 12.9724C18.0314 12.9724 18.1343 12.9173 18.1961 12.818V12.9504H18.4122V12.4209ZM17.6198 12.4209C17.6198 12.2333 17.733 12.0789 17.9182 12.0789C18.0932 12.0789 18.2166 12.2223 18.2166 12.4209C18.2166 12.6084 18.0932 12.7628 17.9182 12.7628C17.733 12.7518 17.6198 12.6084 17.6198 12.4209ZM10.3961 12.4209V11.8914H10.18V12.0237C10.1079 11.9245 10.005 11.8693 9.87125 11.8693C9.59342 11.8693 9.37733 12.101 9.37733 12.4209C9.37733 12.7408 9.59342 12.9724 9.87125 12.9724C10.0153 12.9724 10.1182 12.9173 10.18 12.818V12.9504H10.3961V12.4209ZM9.59342 12.4209C9.59342 12.2333 9.70663 12.0789 9.89183 12.0789C10.0668 12.0789 10.1903 12.2223 10.1903 12.4209C10.1903 12.6084 10.0668 12.7628 9.89183 12.7628C9.70663 12.7518 9.59342 12.6084 9.59342 12.4209Z" fill="black"/>
<path d="M11.373 3.84961H14.6145V10.0934H11.373V3.84961Z" fill="#FF5F00"/>
<path d="M11.5792 6.97131C11.5792 5.70271 12.1348 4.57749 12.9889 3.8494C12.3612 3.3199 11.5689 3 10.7045 3C8.6567 3 7 4.77603 7 6.97131C7 9.16653 8.6567 10.9426 10.7045 10.9426C11.5689 10.9426 12.3612 10.6227 12.9889 10.0932C12.1348 9.37613 11.5792 8.2399 11.5792 6.97131Z" fill="#EB001B"/>
<path d="M18.9881 6.97131C18.9881 9.16653 17.3314 10.9426 15.2836 10.9426C14.4192 10.9426 13.6269 10.6227 12.9992 10.0932C13.8636 9.36513 14.409 8.2399 14.409 6.97131C14.409 5.70271 13.8533 4.57749 12.9992 3.8494C13.6269 3.3199 14.4192 3 15.2836 3C17.3314 3 18.9881 4.78709 18.9881 6.97131Z" fill="#F79E1B"/>
</g>
<defs>
<clipPath id="clip0_0_298">
<rect width="12" height="10" fill="white" transform="translate(7 3)"/>
</clipPath>
</defs>
</svg>
