<svg width="26" height="16" viewBox="0 0 26 16" fill="none" xmlns="http://www.w3.org/2000/svg">
<rect x="0.25" y="0.25" width="25.5" height="15.5" rx="0.75" fill="white"/>
<rect x="0.25" y="0.25" width="25.5" height="15.5" rx="0.75" stroke="black" stroke-width="0.5"/>
<g clip-path="url(#clip0_0_304)">
<path d="M16.6346 3.85628C16.1447 3.2778 15.2592 3.02979 14.1263 3.02979H10.8385C10.7264 3.02979 10.618 3.07122 10.5328 3.14662C10.4476 3.22203 10.3911 3.32647 10.3735 3.44116L9.00453 12.4366C8.97732 12.614 9.10989 12.7747 9.28342 12.7747H11.3132L11.823 9.42472L11.8072 9.52962C11.8435 9.29283 12.0389 9.11818 12.2704 9.11818H13.235C15.1298 9.11818 16.6135 8.32079 17.0469 6.0141C17.0598 5.94588 17.0709 5.87948 17.0806 5.81461C17.0258 5.78459 17.0258 5.78459 17.0806 5.81461C17.2096 4.96203 17.0797 4.38169 16.6346 3.85628Z" fill="#27346A"/>
<path d="M12.5996 5.50748C12.6551 5.4801 12.7158 5.46592 12.7773 5.46596H15.3549C15.6601 5.46596 15.9448 5.48654 16.205 5.52992C16.2777 5.54194 16.3502 5.5563 16.4221 5.57297C16.5241 5.59628 16.6249 5.62481 16.7241 5.65846C16.852 5.70271 16.9711 5.75425 17.0806 5.81461C17.2096 4.96171 17.0797 4.38169 16.6346 3.85628C16.1444 3.2778 15.2592 3.02979 14.1263 3.02979H10.8382C10.6067 3.02979 10.4098 3.2044 10.3735 3.44116L9.00453 12.4363C8.97732 12.614 9.10989 12.7744 9.28314 12.7744H11.3132L12.3708 5.82582C12.3812 5.75753 12.4075 5.69287 12.4473 5.63741C12.4872 5.58196 12.5395 5.53737 12.5996 5.50748Z" fill="#27346A"/>
<path d="M17.0469 6.01395C16.6135 8.3203 15.1298 9.11802 13.235 9.11802H12.2701C12.0387 9.11802 11.8432 9.29268 11.8072 9.52947L11.173 13.6947C11.1493 13.85 11.2652 13.9906 11.4168 13.9906H13.1278C13.2258 13.9906 13.3206 13.9543 13.3952 13.8884C13.4697 13.8224 13.519 13.7311 13.5343 13.6308L13.551 13.5404L13.8735 11.4229L13.8943 11.3059C13.9096 11.2056 13.9589 11.1142 14.0335 11.0483C14.108 10.9823 14.2027 10.946 14.3008 10.946H14.5568C16.2143 10.946 17.5122 10.2483 17.8915 8.23059C18.0498 7.38738 17.9679 6.68338 17.5491 6.18889C17.4221 6.03912 17.2643 5.91542 17.0806 5.81445C17.0706 5.87965 17.0598 5.94572 17.0469 6.01395Z" fill="#2790C3"/>
<path d="M16.6272 5.62714C16.5596 5.6067 16.4914 5.5886 16.4227 5.57287C16.3507 5.55647 16.2783 5.54221 16.2055 5.53011C15.9451 5.48644 15.6606 5.46582 15.3551 5.46582H12.7778C12.7163 5.46568 12.6556 5.47999 12.6002 5.50767C12.5399 5.53747 12.4876 5.58203 12.4477 5.6375C12.4078 5.69297 12.3816 5.75768 12.3713 5.82602L11.8235 9.42462L11.8077 9.52952C11.8437 9.29273 12.0392 9.11808 12.2707 9.11808H13.2355C15.1304 9.11808 16.614 8.32069 17.0474 6.014C17.0603 5.94578 17.0712 5.87967 17.0811 5.81451C16.9714 5.75448 16.8526 5.70261 16.7246 5.65865C16.6924 5.64756 16.6599 5.63706 16.6273 5.62714" fill="#1F264F"/>
</g>
<defs>
<clipPath id="clip0_0_304">
<rect width="9" height="11" fill="white" transform="translate(9 3)"/>
</clipPath>
</defs>
</svg>
