<svg width="32" height="32" viewBox="0 0 32 32" fill="none" xmlns="http://www.w3.org/2000/svg">
<rect width="32" height="32" rx="16" fill="#F3F3F3"/>
<path d="M9 13.5C9 13.5 6.4285 14.5 6 18M23 13.5C23 13.5 25.5715 14.5 26 18M13 13.5C13 13.5 15.4 14.0835 16 17C16.6 14.0835 19 13.5 19 13.5M14 21C14 21 11.9 21.375 11 24M18 21C18 21 20.1 21.375 21 24" stroke="#807E80" stroke-width="2" stroke-linecap="round"/>
<path d="M16 22C17.3807 22 18.5 20.8807 18.5 19.5C18.5 18.1193 17.3807 17 16 17C14.6193 17 13.5 18.1193 13.5 19.5C13.5 20.8807 14.6193 22 16 22Z" stroke="#807E80" stroke-width="2" stroke-linecap="round" stroke-linejoin="round"/>
<path d="M21 14C22.6569 14 24 12.6569 24 11C24 9.34315 22.6569 8 21 8C19.3431 8 18 9.34315 18 11C18 12.6569 19.3431 14 21 14Z" stroke="#807E80" stroke-width="2" stroke-linecap="round" stroke-linejoin="round"/>
<path d="M11 14C12.6569 14 14 12.6569 14 11C14 9.34315 12.6569 8 11 8C9.34315 8 8 9.34315 8 11C8 12.6569 9.34315 14 11 14Z" stroke="#807E80" stroke-width="2" stroke-linecap="round" stroke-linejoin="round"/>
</svg>
