<svg width="32" height="32" viewBox="0 0 32 32" fill="none" xmlns="http://www.w3.org/2000/svg">
<rect width="32" height="32" rx="16" fill="#F3F3F3"/>
<path d="M8 11H11C11.2652 11 11.5196 10.8946 11.7071 10.7071C11.8946 10.5196 12 10.2652 12 10V9C12 8.46957 12.2107 7.96086 12.5858 7.58579C12.9609 7.21071 13.4696 7 14 7C14.5304 7 15.0391 7.21071 15.4142 7.58579C15.7893 7.96086 16 8.46957 16 9V10C16 10.2652 16.1054 10.5196 16.2929 10.7071C16.4804 10.8946 16.7348 11 17 11H20C20.2652 11 20.5196 11.1054 20.7071 11.2929C20.8946 11.4804 21 11.7348 21 12V15C21 15.2652 21.1054 15.5196 21.2929 15.7071C21.4804 15.8946 21.7348 16 22 16H23C23.5304 16 24.0391 16.2107 24.4142 16.5858C24.7893 16.9609 25 17.4696 25 18C25 18.5304 24.7893 19.0391 24.4142 19.4142C24.0391 19.7893 23.5304 20 23 20H22C21.7348 20 21.4804 20.1054 21.2929 20.2929C21.1054 20.4804 21 20.7348 21 21V24C21 24.2652 20.8946 24.5196 20.7071 24.7071C20.5196 24.8946 20.2652 25 20 25H17C16.7348 25 16.4804 24.8946 16.2929 24.7071C16.1054 24.5196 16 24.2652 16 24V23C16 22.4696 15.7893 21.9609 15.4142 21.5858C15.0391 21.2107 14.5304 21 14 21C13.4696 21 12.9609 21.2107 12.5858 21.5858C12.2107 21.9609 12 22.4696 12 23V24C12 24.2652 11.8946 24.5196 11.7071 24.7071C11.5196 24.8946 11.2652 25 11 25H8C7.73478 25 7.48043 24.8946 7.29289 24.7071C7.10536 24.5196 7 24.2652 7 24V21C7 20.7348 7.10536 20.4804 7.29289 20.2929C7.48043 20.1054 7.73478 20 8 20H9C9.53043 20 10.0391 19.7893 10.4142 19.4142C10.7893 19.0391 11 18.5304 11 18C11 17.4696 10.7893 16.9609 10.4142 16.5858C10.0391 16.2107 9.53043 16 9 16H8C7.73478 16 7.48043 15.8946 7.29289 15.7071C7.10536 15.5196 7 15.2652 7 15V12C7 11.7348 7.10536 11.4804 7.29289 11.2929C7.48043 11.1054 7.73478 11 8 11Z" stroke="#807E80" stroke-width="2" stroke-linecap="round" stroke-linejoin="round"/>
</svg>
