<svg width="16" height="16" viewBox="0 0 16 16" fill="none" xmlns="http://www.w3.org/2000/svg">
<path d="M8 1L2 3V9C2 12.3141 4.68594 15 8 15C11.3141 15 14 12.3141 14 9V3L8 1ZM12.875 9C12.875 11.6922 10.6922 13.875 8 13.875C5.30781 13.875 3.125 11.6922 3.125 9V3.84375L8 2.125L12.875 3.84375V9Z" fill="#0AB525"/>
<path d="M5.9125 7.42344C5.86037 7.37106 5.7984 7.32951 5.73016 7.30115C5.66191 7.27279 5.58874 7.25819 5.51484 7.25819C5.44095 7.25819 5.36777 7.27279 5.29953 7.30115C5.23129 7.32951 5.16932 7.37106 5.11719 7.42344C5.06481 7.47557 5.02326 7.53754 4.9949 7.60578C4.96654 7.67402 4.95194 7.7472 4.95194 7.82109C4.95194 7.89499 4.96654 7.96816 4.9949 8.03641C5.02326 8.10465 5.06481 8.16662 5.11719 8.21875L7.13906 10.2406L7.17188 10.2734C7.22119 10.3228 7.27976 10.362 7.34425 10.3888C7.40873 10.4155 7.47785 10.4293 7.54766 10.4293C7.61746 10.4293 7.68659 10.4155 7.75107 10.3888C7.81555 10.362 7.87412 10.3228 7.92344 10.2734L11.4156 6.78125C11.465 6.73194 11.5042 6.67336 11.531 6.60888C11.5577 6.5444 11.5715 6.47528 11.5715 6.40547C11.5715 6.33566 11.5577 6.26654 11.531 6.20206C11.5042 6.13758 11.465 6.079 11.4156 6.02969L11.3719 5.98594C11.3226 5.93653 11.264 5.89733 11.1995 5.87059C11.135 5.84384 11.0659 5.83008 10.9961 5.83008C10.9263 5.83008 10.8572 5.84384 10.7927 5.87059C10.7282 5.89733 10.6696 5.93653 10.6203 5.98594L7.54688 9.05781L5.9125 7.42344Z" fill="#0AB525"/>
</svg>
