<svg width="26" height="16" viewBox="0 0 26 16" fill="none" xmlns="http://www.w3.org/2000/svg">
<rect x="0.25" y="0.25" width="25.5" height="15.5" rx="0.75" fill="white"/>
<rect x="0.25" y="0.25" width="25.5" height="15.5" rx="0.75" stroke="black" stroke-width="0.5"/>
<g clip-path="url(#clip0_0_310)">
<path d="M13.3435 6.91041C13.3321 7.74289 14.1453 8.20742 14.7579 8.48364C15.3873 8.76701 15.5987 8.94875 15.5962 9.20219C15.5915 9.59002 15.0941 9.76121 14.6288 9.76786C13.8168 9.77949 13.3447 9.56501 12.9694 9.4028L12.6769 10.6692C13.0534 10.8298 13.7507 10.9698 14.4738 10.976C16.171 10.976 17.2814 10.2007 17.2874 8.99877C17.2941 7.47333 15.0071 7.38889 15.0227 6.70706C15.0281 6.50031 15.2413 6.27969 15.7085 6.22359C15.9398 6.19525 16.5781 6.17357 17.3019 6.48195L17.5859 5.25665C17.1967 5.12552 16.6965 4.99995 16.0737 4.99995C14.4762 4.99995 13.3526 5.78574 13.3435 6.91041ZM20.3155 5.10549C20.0055 5.10549 19.7444 5.27277 19.6278 5.52947L17.2034 10.886H18.8994L19.2369 10.0229H21.3094L21.5052 10.886H23L21.6955 5.10549H20.3155ZM20.5527 6.66701L21.0422 8.83764H19.7017L20.5527 6.66701ZM11.2872 5.10557L9.95031 10.8859H11.5665L12.9027 5.10542H11.2872M8.89633 5.10542L7.21414 9.0399L6.53367 5.69458C6.45383 5.32113 6.13852 5.10549 5.78836 5.10549H3.03852L3 5.27335C3.56453 5.3867 4.20594 5.56952 4.59453 5.76513C4.83234 5.88463 4.90016 5.98908 4.97828 6.27304L6.26711 10.886H7.975L10.5934 5.10549L8.89633 5.10542Z" fill="url(#paint0_linear_0_310)"/>
</g>
<defs>
<linearGradient id="paint0_linear_0_310" x1="922.48" y1="22.9638" x2="938.488" y2="-590.85" gradientUnits="userSpaceOnUse">
<stop stop-color="#222357"/>
<stop offset="1" stop-color="#254AA5"/>
</linearGradient>
<clipPath id="clip0_0_310">
<rect width="20" height="6" fill="white" transform="translate(3 5)"/>
</clipPath>
</defs>
</svg>
